<svg width="23" height="23" xmlns="http://www.w3.org/2000/svg" xmlns:xlink="http://www.w3.org/1999/xlink" xmlns:svgjs="http://svgjs.com/svgjs" fill="#fff"><svg xmlns="http://www.w3.org/2000/svg" width="23" height="23" viewBox="0.035 0.103 21.976 21.976"><path paint-order="stroke fill markers" fill-rule="evenodd" d="M20.24 4.711h-.355V2.585A2.484 2.484 0 0 0 17.404.103h-2.481v3.9h2.126v.708h-2.853A4.965 4.965 0 0 0 9.25.103a4.965 4.965 0 0 0-4.944 4.608h-2.5c-.976 0-1.772.795-1.772 1.773v10.279c0 .977.796 1.772 1.773 1.772H9.25v.777L4.29 20.375v1.704h13.469v-1.704l-4.962-1.063v-.777h7.443c.977 0 1.772-.795 1.772-1.772V6.483c0-.977-.795-1.772-1.772-1.772zm-3.9-1.417h-.709V.812h.71v2.482zM9.251 21.37H4.998v-.422l4.253-.912v1.334zm8.507-14.533V3.294h-.709V.812h.355c.977 0 1.772.795 1.772 1.773v4.962c0 .977-.795 1.772-1.772 1.772h-.355V6.838h.709zM4.998 5.066A4.258 4.258 0 0 1 9.25.812a4.258 4.258 0 0 1 4.254 4.254v1.427a1.757 1.757 0 0 0-.71-.328V5.42h-.354a3.9 3.9 0 0 1-2.775-1.149l-.415-.415-.415.415A3.898 3.898 0 0 1 6.06 5.42h-.354v.744a1.76 1.76 0 0 0-.71.327V5.066zm16.305 10.633h-4.368l-.728-1.818a3.202 3.202 0 0 0-2.476-1.968l-2.707-.417v-.175A3.56 3.56 0 0 0 12.5 9.668 1.771 1.771 0 0 0 14.213 7.9v-2.48h2.836v.708h-2.126v3.899h2.48a2.484 2.484 0 0 0 2.482-2.481V5.42h.354c.587 0 1.064.477 1.064 1.064v9.215zm-7.876 0h-2.8l-.163-1.31 1.623.325v-2.337l1.536.236a2.49 2.49 0 0 1 1.926 1.531l.622 1.555H14.15l-.298-1.487-.695.14.27 1.347zm-2.05-1.85l-1.006-.201-.046-.367.546-1.091.507.078v1.581zm-2.126-2.758a2.84 2.84 0 0 1-2.836-2.835v-2.14a4.598 4.598 0 0 0 2.836-1.26c.779.74 1.771 1.18 2.836 1.26v2.14a2.839 2.839 0 0 1-2.836 2.835zm.49 1.773h-.98l-.573-1.147v-.08a3.536 3.536 0 0 0 2.126 0v.08l-.573 1.147zm.172 2.835H8.59l.265-2.126h.793l.265 2.126zM4.65 14.212l-.297 1.487H2.33l.622-1.555a2.49 2.49 0 0 1 1.927-1.53l1.535-.237v2.337l1.624-.325-.164 1.31h-2.8l.27-1.348-.695-.14zm2.475-.363v-1.581l.507-.078.546 1.09-.046.368-1.007.201zM.745 6.484c0-.587.476-1.064 1.063-1.064h2.481v2.481c0 .957.764 1.735 1.713 1.767a3.564 3.564 0 0 0 1.477 1.653v.175l-2.707.417c-1.11.17-2.06.925-2.477 1.968l-.727 1.818H.744V6.484zm4.962.42v1.352c0 .227.023.448.064.663a1.061 1.061 0 0 1-.773-1.018c0-.461.297-.85.709-.998zm6.38 14.467H9.96v-2.836h2.127v2.836zm4.962-.422v.422h-4.253v-1.334l4.253.912zm4.254-4.186c0 .586-.477 1.063-1.064 1.063H1.808a1.065 1.065 0 0 1-1.064-1.063v-.355h20.559v.355zM13.505 7.9c0 .486-.329.891-.774 1.018.041-.215.065-.436.065-.663V6.903c.411.147.709.537.709.998zm2.835-1.063v2.481h-.709V6.838h.71z"/></svg></svg>